<svg width="78" height="73" viewBox="0 0 78 73" fill="none" xmlns="http://www.w3.org/2000/svg">
<path opacity="0.05" d="M14.6091 10.8444C-8.04541 34.6387 0.657782 55.073 7.84119 62.3158C21.6076 74.9983 41.401 73.3659 55.3636 69.1666C62.9599 66.882 70.4249 62.8948 74.3378 55.9946C82.0655 42.3673 75.9394 25.1308 70.2099 17.7361C47.7625 -10.6497 23.2173 1.28632 14.6091 10.8444Z" fill="#3578FE"/>
<path d="M57.0072 25.3066H23.3906V54.1216H57.0072V25.3066Z" stroke="#3578FE" stroke-opacity="0.37" stroke-width="1.07059" stroke-linecap="round" stroke-linejoin="round"/>
<path d="M39.139 29.573H50.8512" stroke="#3578FE" stroke-opacity="0.37" stroke-width="1.07059" stroke-linecap="round" stroke-linejoin="round"/>
<path d="M39.139 32.5706H44.251" stroke="#3578FE" stroke-width="1.07059" stroke-linecap="round" stroke-linejoin="round"/>
<path d="M47.5324 32.5706H51.7345" stroke="#3578FE" stroke-opacity="0.37" stroke-width="1.07059" stroke-linecap="round" stroke-linejoin="round"/>
<path d="M39.139 35.5789H50.7763" stroke="#3578FE" stroke-width="1.07059" stroke-linecap="round" stroke-linejoin="round"/>
<path d="M20.9924 22.9085H54.609M54.609 51.7234H20.9924V19.9054C20.9873 19.6678 21.0304 19.4317 21.1189 19.2112C21.2075 18.9906 21.3398 18.7903 21.5079 18.6223C21.6759 18.4542 21.8762 18.3219 22.0967 18.2333C22.3173 18.1448 22.5534 18.1017 22.791 18.1069H52.805C53.0429 18.1018 53.2793 18.1448 53.5001 18.2333C53.7209 18.3218 53.9216 18.454 54.09 18.622C54.2585 18.7899 54.3913 18.9902 54.4805 19.2108C54.5697 19.4313 54.6134 19.6676 54.609 19.9054V51.7234V51.7234Z" stroke="#3578FE" stroke-width="1.07059" stroke-linecap="round" stroke-linejoin="round"/>
<path d="M24.0115 20.5049C24.0115 20.6226 23.9768 20.7376 23.9118 20.8357C23.8468 20.9338 23.7544 21.0106 23.6461 21.0565C23.5378 21.1024 23.4184 21.1155 23.3027 21.094C23.187 21.0726 23.0802 21.0176 22.9956 20.9359C22.9109 20.8541 22.8522 20.7493 22.8267 20.6345C22.8012 20.5196 22.8101 20.3998 22.8522 20.29C22.8943 20.1801 22.9678 20.0851 23.0635 20.0167C23.1593 19.9483 23.273 19.9096 23.3906 19.9054C23.4711 19.9025 23.5514 19.9159 23.6266 19.9448C23.7018 19.9736 23.7705 20.0173 23.8284 20.0733C23.8864 20.1292 23.9325 20.1963 23.9639 20.2705C23.9954 20.3446 24.0116 20.4244 24.0115 20.5049Z" fill="#3578FE"/>
<path d="M25.7941 20.505C25.7941 20.6236 25.7589 20.7395 25.6931 20.8381C25.6272 20.9367 25.5335 21.0136 25.424 21.0589C25.3144 21.1043 25.1939 21.1162 25.0776 21.0931C24.9613 21.0699 24.8545 21.0128 24.7706 20.929C24.6868 20.8451 24.6297 20.7383 24.6066 20.622C24.5834 20.5057 24.5953 20.3852 24.6407 20.2756C24.686 20.1661 24.7629 20.0724 24.8615 20.0066C24.9601 19.9407 25.076 19.9055 25.1946 19.9055C25.3536 19.9055 25.5061 19.9687 25.6185 20.0811C25.7309 20.1935 25.7941 20.346 25.7941 20.505Z" fill="#3578FE"/>
<path d="M27.5927 20.505C27.5927 20.6236 27.5575 20.7395 27.4916 20.8381C27.4258 20.9367 27.3321 21.0136 27.2226 21.0589C27.113 21.1043 26.9925 21.1162 26.8762 21.0931C26.7599 21.0699 26.6531 21.0128 26.5692 20.929C26.4854 20.8451 26.4283 20.7383 26.4051 20.622C26.382 20.5057 26.3939 20.3852 26.4393 20.2756C26.4846 20.1661 26.5615 20.0724 26.6601 20.0066C26.7587 19.9407 26.8746 19.9055 26.9931 19.9055C27.0719 19.9055 27.1498 19.921 27.2226 19.9512C27.2953 19.9813 27.3614 20.0254 27.4171 20.0811C27.4728 20.1368 27.5169 20.2029 27.547 20.2756C27.5772 20.3484 27.5927 20.4263 27.5927 20.505Z" fill="#3578FE"/>
<path d="M33.5345 48.394H51.5471" stroke="#3578FE" stroke-opacity="0.37" stroke-width="1.07059" stroke-linecap="round" stroke-linejoin="round"/>
<path d="M27.5338 45.3909H35.3384" stroke="#3578FE" stroke-opacity="0.37" stroke-width="1.07059" stroke-linecap="round" stroke-linejoin="round"/>
<path d="M39.1765 45.3909H46.9811" stroke="#3578FE" stroke-opacity="0.37" stroke-width="1.07059" stroke-linecap="round" stroke-linejoin="round"/>
<path d="M30.6867 38.266C33.4213 38.266 35.6382 36.0491 35.6382 33.3145C35.6382 30.5799 33.4213 28.363 30.6867 28.363C27.9521 28.363 25.7352 30.5799 25.7352 33.3145C25.7352 36.0491 27.9521 38.266 30.6867 38.266Z" stroke="#3578FE" stroke-width="1.07059" stroke-miterlimit="10"/>
<path d="M30.6866 32.5438C31.337 32.5438 31.8643 32.0165 31.8643 31.3661C31.8643 30.7157 31.337 30.1885 30.6866 30.1885C30.0362 30.1885 29.509 30.7157 29.509 31.3661C29.509 32.0165 30.0362 32.5438 30.6866 32.5438Z" fill="#3578FE"/>
<path d="M27.9995 35.381C28.0009 34.8391 28.2168 34.3198 28.6 33.9367C28.9831 33.5535 29.5024 33.3376 30.0443 33.3362H31.3237C31.8656 33.3376 32.3848 33.5535 32.768 33.9367C33.1512 34.3198 33.3671 34.8391 33.3685 35.381" fill="#3578FE"/>
</svg>
