<svg width="81" height="74" viewBox="0 0 81 74" fill="none" xmlns="http://www.w3.org/2000/svg">
<path opacity="0.05" d="M15.8504 11.1104C-7.35954 35.4881 1.55704 56.4234 8.91658 63.8438C23.0205 76.8372 43.2992 75.1648 57.6041 70.8626C65.3867 68.5219 73.0347 64.4369 77.0436 57.3676C84.9607 43.4061 78.6845 25.7471 72.8145 18.1711C49.8167 -10.9107 24.6697 1.31793 15.8504 11.1104Z" fill="#3578FE"/>
<rect x="21.9283" y="32.6022" width="30.326" height="18.7408" rx="1.53334" fill="#F0F3FE" stroke="#3578FE" stroke-width="1.02222"/>
<path d="M58.5579 49.128C58.5579 52.3272 55.9645 54.9206 52.7653 54.9206C49.5662 54.9206 46.9727 52.3272 46.9727 49.128C46.9727 46.3854 48.8787 44.088 51.4384 43.4881C51.8645 43.3882 51.6456 42.071 52.7653 42.1173C53.9758 42.0591 53.6661 43.3882 54.0923 43.4881C56.6519 44.088 58.5579 46.3854 58.5579 49.128Z" fill="#F0F3FE"/>
<mask id="path-4-outside-1" maskUnits="userSpaceOnUse" x="44.2691" y="40.6318" width="17" height="17" fill="black">
<rect fill="white" x="44.2691" y="40.6318" width="17" height="17"/>
<path d="M59.5933 47.6803C59.3114 47.6381 59.0219 47.5976 58.7331 47.5599C58.6981 47.5554 58.6697 47.5317 58.6608 47.4995C58.5275 47.0157 58.334 46.5488 58.0858 46.1118C58.0691 46.0825 58.0723 46.0455 58.0938 46.0175C58.2715 45.7866 58.4476 45.5531 58.6173 45.3237C58.8464 45.014 58.8131 44.5745 58.54 44.3013L57.5922 43.3535C57.319 43.0804 56.8795 43.0471 56.5697 43.2763C56.3408 43.4456 56.1074 43.6217 55.876 43.7997C55.8481 43.8213 55.811 43.8244 55.7817 43.8077C55.3447 43.5595 54.8779 43.3661 54.394 43.2327C54.3618 43.2239 54.3381 43.1955 54.3335 43.1604C54.2958 42.8711 54.2553 42.5817 54.2132 42.3002C54.1562 41.9192 53.8219 41.6318 53.4355 41.6318H52.0952C51.7088 41.6318 51.3746 41.9192 51.3176 42.3002C51.2755 42.5817 51.235 42.8711 51.1973 43.1605C51.1927 43.1955 51.169 43.2239 51.1368 43.2327C50.6529 43.3661 50.186 43.5596 49.7491 43.8077C49.7198 43.8244 49.6827 43.8212 49.6547 43.7997C49.4233 43.6217 49.1899 43.4456 48.961 43.2763C48.6512 43.0471 48.2117 43.0804 47.9385 43.3536L46.9908 44.3013C46.7176 44.5745 46.6844 45.0141 46.9135 45.3238C47.0835 45.5536 47.2596 45.7869 47.437 46.0175C47.4585 46.0454 47.4616 46.0825 47.445 46.1118C47.1967 46.5489 47.0033 47.0158 46.87 47.4995C46.8612 47.5316 46.8327 47.5554 46.7977 47.56C46.509 47.5977 46.2196 47.6381 45.9375 47.6803C45.5564 47.7373 45.2691 48.0717 45.2691 48.4579V49.7983C45.2691 50.1847 45.5564 50.519 45.9374 50.576C46.2195 50.6182 46.509 50.6586 46.7977 50.6963C46.8327 50.7009 46.8611 50.7246 46.8699 50.7568C47.0033 51.2406 47.1967 51.7075 47.445 52.1445C47.4616 52.1738 47.4585 52.2109 47.4369 52.2389C47.2591 52.4699 47.083 52.7033 46.9135 52.9325C46.6844 53.2423 46.7176 53.6818 46.9908 53.955L47.9385 54.9028C48.2117 55.1759 48.6513 55.2092 48.961 54.98C49.1899 54.8107 49.4233 54.6346 49.6547 54.4566C49.6826 54.435 49.7197 54.4319 49.7491 54.4486C50.1859 54.6968 50.6528 54.8902 51.1367 55.0236C51.1689 55.0324 51.1927 55.0608 51.1972 55.0958C51.235 55.3851 51.2755 55.6746 51.3176 55.956C51.3746 56.3371 51.7088 56.6244 52.0952 56.6244H53.4355C53.8219 56.6244 54.1562 56.3371 54.2131 55.956C54.2553 55.6742 54.2958 55.3848 54.3335 55.0958C54.3381 55.0607 54.3618 55.0323 54.394 55.0235C54.8778 54.8901 55.3447 54.6966 55.7816 54.4485C55.811 54.4318 55.848 54.435 55.876 54.4565C56.1074 54.6345 56.3408 54.8106 56.5697 54.9799C56.8794 55.209 57.319 55.1758 57.5922 54.9027L58.5399 53.9549C58.8131 53.6817 58.8463 53.2422 58.6172 52.9324C58.4475 52.7031 58.2714 52.4697 58.0938 52.2387C58.0722 52.2108 58.0691 52.1737 58.0858 52.1444C58.334 51.7073 58.5274 51.2405 58.6608 50.7567C58.6697 50.7245 58.698 50.7008 58.7331 50.6962C59.0219 50.6585 59.3113 50.618 59.5933 50.5758C59.9744 50.5189 60.2617 50.1846 60.2617 49.7982V48.4579C60.2617 48.0716 59.9744 47.7373 59.5933 47.6803ZM59.5616 49.7984C59.5616 49.8408 59.5307 49.8774 59.4898 49.8836C59.2121 49.9252 58.9271 49.965 58.6426 50.0022C58.3275 50.0432 58.0698 50.2664 57.9859 50.5708C57.8679 50.9989 57.6967 51.412 57.4771 51.7987C57.3209 52.0736 57.3452 52.414 57.5389 52.6658C57.7139 52.8933 57.8874 53.1231 58.0544 53.349C58.0791 53.3822 58.075 53.43 58.045 53.46L57.0972 54.4078C57.0671 54.4379 57.0194 54.4419 56.9861 54.4173C56.7607 54.2505 56.5308 54.0771 56.303 53.9018C56.0512 53.708 55.7108 53.6837 55.4359 53.8399C55.0493 54.0595 54.6361 54.2307 54.208 54.3487C53.9036 54.4326 53.6804 54.6904 53.6393 55.0054C53.6022 55.2901 53.5623 55.5751 53.5208 55.8526C53.5147 55.8936 53.478 55.9244 53.4355 55.9244H52.0952C52.0527 55.9244 52.0161 55.8936 52.01 55.8526C51.9685 55.5754 51.9286 55.2904 51.8915 55.0054C51.8504 54.6904 51.6271 54.4326 51.3228 54.3487C50.8946 54.2307 50.4815 54.0595 50.0948 53.8399C49.9743 53.7714 49.8411 53.7376 49.7084 53.7376C49.5385 53.7376 49.3692 53.793 49.2278 53.9018C48.9999 54.0771 48.77 54.2506 48.5447 54.4174C48.5113 54.4419 48.4636 54.4379 48.4336 54.4079L47.4858 53.4601C47.4558 53.4301 47.4517 53.3823 47.4763 53.349C47.6433 53.1234 47.8167 52.8935 47.9918 52.6659C48.1855 52.414 48.2098 52.0738 48.0537 51.7989C47.834 51.4121 47.6629 50.9989 47.5449 50.5709C47.461 50.2666 47.2033 50.0433 46.8882 50.0023C46.6038 49.9651 46.3188 49.9252 46.041 49.8837C46 49.8776 45.9691 49.8409 45.9691 49.7985V48.4581C45.9691 48.4156 46 48.379 46.041 48.3729C46.3188 48.3313 46.6038 48.2914 46.8882 48.2543C47.2032 48.2133 47.461 47.99 47.5449 47.6856C47.6628 47.2577 47.834 46.8445 48.0537 46.4577C48.2098 46.1828 48.1855 45.8425 47.9918 45.5907C47.8172 45.3636 47.6437 45.1338 47.4763 44.9075C47.4517 44.8742 47.4558 44.8264 47.4858 44.7965L48.4336 43.8487C48.4635 43.8186 48.5113 43.8146 48.5446 43.8392C48.77 44.0059 48.9999 44.1794 49.2278 44.3547C49.4796 44.5484 49.8199 44.5727 50.0949 44.4165C50.4815 44.1969 50.8946 44.0257 51.3227 43.9077C51.6271 43.8238 51.8504 43.5661 51.8915 43.251C51.9286 42.9661 51.9685 42.681 52.01 42.4038C52.0161 42.3629 52.0528 42.332 52.0952 42.332H53.4356C53.478 42.332 53.5147 42.3628 53.5208 42.4038C53.5623 42.681 53.6022 42.966 53.6394 43.251C53.6804 43.5661 53.9037 43.8238 54.2081 43.9077C54.6362 44.0257 55.0493 44.1969 55.436 44.4165C55.7109 44.5726 56.0512 44.5484 56.303 44.3546C56.5309 44.1793 56.7608 44.0059 56.9861 43.8392C57.0194 43.8145 57.0672 43.8186 57.0972 43.8486L58.045 44.7964C58.075 44.8264 58.0791 44.8742 58.0545 44.9075C57.8874 45.1334 57.714 45.3632 57.539 45.5906C57.3453 45.8425 57.321 46.1828 57.4771 46.4577C57.6968 46.8444 57.868 47.2575 57.986 47.6856C58.0699 47.99 58.3277 48.2132 58.6426 48.2543C58.9271 48.2914 59.2122 48.3313 59.4899 48.3728C59.5308 48.3789 59.5617 48.4156 59.5617 48.458V49.7984H59.5616Z"/>
</mask>
<path d="M59.5933 47.6803C59.3114 47.6381 59.0219 47.5976 58.7331 47.5599C58.6981 47.5554 58.6697 47.5317 58.6608 47.4995C58.5275 47.0157 58.334 46.5488 58.0858 46.1118C58.0691 46.0825 58.0723 46.0455 58.0938 46.0175C58.2715 45.7866 58.4476 45.5531 58.6173 45.3237C58.8464 45.014 58.8131 44.5745 58.54 44.3013L57.5922 43.3535C57.319 43.0804 56.8795 43.0471 56.5697 43.2763C56.3408 43.4456 56.1074 43.6217 55.876 43.7997C55.8481 43.8213 55.811 43.8244 55.7817 43.8077C55.3447 43.5595 54.8779 43.3661 54.394 43.2327C54.3618 43.2239 54.3381 43.1955 54.3335 43.1604C54.2958 42.8711 54.2553 42.5817 54.2132 42.3002C54.1562 41.9192 53.8219 41.6318 53.4355 41.6318H52.0952C51.7088 41.6318 51.3746 41.9192 51.3176 42.3002C51.2755 42.5817 51.235 42.8711 51.1973 43.1605C51.1927 43.1955 51.169 43.2239 51.1368 43.2327C50.6529 43.3661 50.186 43.5596 49.7491 43.8077C49.7198 43.8244 49.6827 43.8212 49.6547 43.7997C49.4233 43.6217 49.1899 43.4456 48.961 43.2763C48.6512 43.0471 48.2117 43.0804 47.9385 43.3536L46.9908 44.3013C46.7176 44.5745 46.6844 45.0141 46.9135 45.3238C47.0835 45.5536 47.2596 45.7869 47.437 46.0175C47.4585 46.0454 47.4616 46.0825 47.445 46.1118C47.1967 46.5489 47.0033 47.0158 46.87 47.4995C46.8612 47.5316 46.8327 47.5554 46.7977 47.56C46.509 47.5977 46.2196 47.6381 45.9375 47.6803C45.5564 47.7373 45.2691 48.0717 45.2691 48.4579V49.7983C45.2691 50.1847 45.5564 50.519 45.9374 50.576C46.2195 50.6182 46.509 50.6586 46.7977 50.6963C46.8327 50.7009 46.8611 50.7246 46.8699 50.7568C47.0033 51.2406 47.1967 51.7075 47.445 52.1445C47.4616 52.1738 47.4585 52.2109 47.4369 52.2389C47.2591 52.4699 47.083 52.7033 46.9135 52.9325C46.6844 53.2423 46.7176 53.6818 46.9908 53.955L47.9385 54.9028C48.2117 55.1759 48.6513 55.2092 48.961 54.98C49.1899 54.8107 49.4233 54.6346 49.6547 54.4566C49.6826 54.435 49.7197 54.4319 49.7491 54.4486C50.1859 54.6968 50.6528 54.8902 51.1367 55.0236C51.1689 55.0324 51.1927 55.0608 51.1972 55.0958C51.235 55.3851 51.2755 55.6746 51.3176 55.956C51.3746 56.3371 51.7088 56.6244 52.0952 56.6244H53.4355C53.8219 56.6244 54.1562 56.3371 54.2131 55.956C54.2553 55.6742 54.2958 55.3848 54.3335 55.0958C54.3381 55.0607 54.3618 55.0323 54.394 55.0235C54.8778 54.8901 55.3447 54.6966 55.7816 54.4485C55.811 54.4318 55.848 54.435 55.876 54.4565C56.1074 54.6345 56.3408 54.8106 56.5697 54.9799C56.8794 55.209 57.319 55.1758 57.5922 54.9027L58.5399 53.9549C58.8131 53.6817 58.8463 53.2422 58.6172 52.9324C58.4475 52.7031 58.2714 52.4697 58.0938 52.2387C58.0722 52.2108 58.0691 52.1737 58.0858 52.1444C58.334 51.7073 58.5274 51.2405 58.6608 50.7567C58.6697 50.7245 58.698 50.7008 58.7331 50.6962C59.0219 50.6585 59.3113 50.618 59.5933 50.5758C59.9744 50.5189 60.2617 50.1846 60.2617 49.7982V48.4579C60.2617 48.0716 59.9744 47.7373 59.5933 47.6803ZM59.5616 49.7984C59.5616 49.8408 59.5307 49.8774 59.4898 49.8836C59.2121 49.9252 58.9271 49.965 58.6426 50.0022C58.3275 50.0432 58.0698 50.2664 57.9859 50.5708C57.8679 50.9989 57.6967 51.412 57.4771 51.7987C57.3209 52.0736 57.3452 52.414 57.5389 52.6658C57.7139 52.8933 57.8874 53.1231 58.0544 53.349C58.0791 53.3822 58.075 53.43 58.045 53.46L57.0972 54.4078C57.0671 54.4379 57.0194 54.4419 56.9861 54.4173C56.7607 54.2505 56.5308 54.0771 56.303 53.9018C56.0512 53.708 55.7108 53.6837 55.4359 53.8399C55.0493 54.0595 54.6361 54.2307 54.208 54.3487C53.9036 54.4326 53.6804 54.6904 53.6393 55.0054C53.6022 55.2901 53.5623 55.5751 53.5208 55.8526C53.5147 55.8936 53.478 55.9244 53.4355 55.9244H52.0952C52.0527 55.9244 52.0161 55.8936 52.01 55.8526C51.9685 55.5754 51.9286 55.2904 51.8915 55.0054C51.8504 54.6904 51.6271 54.4326 51.3228 54.3487C50.8946 54.2307 50.4815 54.0595 50.0948 53.8399C49.9743 53.7714 49.8411 53.7376 49.7084 53.7376C49.5385 53.7376 49.3692 53.793 49.2278 53.9018C48.9999 54.0771 48.77 54.2506 48.5447 54.4174C48.5113 54.4419 48.4636 54.4379 48.4336 54.4079L47.4858 53.4601C47.4558 53.4301 47.4517 53.3823 47.4763 53.349C47.6433 53.1234 47.8167 52.8935 47.9918 52.6659C48.1855 52.414 48.2098 52.0738 48.0537 51.7989C47.834 51.4121 47.6629 50.9989 47.5449 50.5709C47.461 50.2666 47.2033 50.0433 46.8882 50.0023C46.6038 49.9651 46.3188 49.9252 46.041 49.8837C46 49.8776 45.9691 49.8409 45.9691 49.7985V48.4581C45.9691 48.4156 46 48.379 46.041 48.3729C46.3188 48.3313 46.6038 48.2914 46.8882 48.2543C47.2032 48.2133 47.461 47.99 47.5449 47.6856C47.6628 47.2577 47.834 46.8445 48.0537 46.4577C48.2098 46.1828 48.1855 45.8425 47.9918 45.5907C47.8172 45.3636 47.6437 45.1338 47.4763 44.9075C47.4517 44.8742 47.4558 44.8264 47.4858 44.7965L48.4336 43.8487C48.4635 43.8186 48.5113 43.8146 48.5446 43.8392C48.77 44.0059 48.9999 44.1794 49.2278 44.3547C49.4796 44.5484 49.8199 44.5727 50.0949 44.4165C50.4815 44.1969 50.8946 44.0257 51.3227 43.9077C51.6271 43.8238 51.8504 43.5661 51.8915 43.251C51.9286 42.9661 51.9685 42.681 52.01 42.4038C52.0161 42.3629 52.0528 42.332 52.0952 42.332H53.4356C53.478 42.332 53.5147 42.3628 53.5208 42.4038C53.5623 42.681 53.6022 42.966 53.6394 43.251C53.6804 43.5661 53.9037 43.8238 54.2081 43.9077C54.6362 44.0257 55.0493 44.1969 55.436 44.4165C55.7109 44.5726 56.0512 44.5484 56.303 44.3546C56.5309 44.1793 56.7608 44.0059 56.9861 43.8392C57.0194 43.8145 57.0672 43.8186 57.0972 43.8486L58.045 44.7964C58.075 44.8264 58.0791 44.8742 58.0545 44.9075C57.8874 45.1334 57.714 45.3632 57.539 45.5906C57.3453 45.8425 57.321 46.1828 57.4771 46.4577C57.6968 46.8444 57.868 47.2575 57.986 47.6856C58.0699 47.99 58.3277 48.2132 58.6426 48.2543C58.9271 48.2914 59.2122 48.3313 59.4899 48.3728C59.5308 48.3789 59.5617 48.4156 59.5617 48.458V49.7984H59.5616Z" fill="#3578FE"/>
<path d="M59.5933 47.6803C59.3114 47.6381 59.0219 47.5976 58.7331 47.5599C58.6981 47.5554 58.6697 47.5317 58.6608 47.4995C58.5275 47.0157 58.334 46.5488 58.0858 46.1118C58.0691 46.0825 58.0723 46.0455 58.0938 46.0175C58.2715 45.7866 58.4476 45.5531 58.6173 45.3237C58.8464 45.014 58.8131 44.5745 58.54 44.3013L57.5922 43.3535C57.319 43.0804 56.8795 43.0471 56.5697 43.2763C56.3408 43.4456 56.1074 43.6217 55.876 43.7997C55.8481 43.8213 55.811 43.8244 55.7817 43.8077C55.3447 43.5595 54.8779 43.3661 54.394 43.2327C54.3618 43.2239 54.3381 43.1955 54.3335 43.1604C54.2958 42.8711 54.2553 42.5817 54.2132 42.3002C54.1562 41.9192 53.8219 41.6318 53.4355 41.6318H52.0952C51.7088 41.6318 51.3746 41.9192 51.3176 42.3002C51.2755 42.5817 51.235 42.8711 51.1973 43.1605C51.1927 43.1955 51.169 43.2239 51.1368 43.2327C50.6529 43.3661 50.186 43.5596 49.7491 43.8077C49.7198 43.8244 49.6827 43.8212 49.6547 43.7997C49.4233 43.6217 49.1899 43.4456 48.961 43.2763C48.6512 43.0471 48.2117 43.0804 47.9385 43.3536L46.9908 44.3013C46.7176 44.5745 46.6844 45.0141 46.9135 45.3238C47.0835 45.5536 47.2596 45.7869 47.437 46.0175C47.4585 46.0454 47.4616 46.0825 47.445 46.1118C47.1967 46.5489 47.0033 47.0158 46.87 47.4995C46.8612 47.5316 46.8327 47.5554 46.7977 47.56C46.509 47.5977 46.2196 47.6381 45.9375 47.6803C45.5564 47.7373 45.2691 48.0717 45.2691 48.4579V49.7983C45.2691 50.1847 45.5564 50.519 45.9374 50.576C46.2195 50.6182 46.509 50.6586 46.7977 50.6963C46.8327 50.7009 46.8611 50.7246 46.8699 50.7568C47.0033 51.2406 47.1967 51.7075 47.445 52.1445C47.4616 52.1738 47.4585 52.2109 47.4369 52.2389C47.2591 52.4699 47.083 52.7033 46.9135 52.9325C46.6844 53.2423 46.7176 53.6818 46.9908 53.955L47.9385 54.9028C48.2117 55.1759 48.6513 55.2092 48.961 54.98C49.1899 54.8107 49.4233 54.6346 49.6547 54.4566C49.6826 54.435 49.7197 54.4319 49.7491 54.4486C50.1859 54.6968 50.6528 54.8902 51.1367 55.0236C51.1689 55.0324 51.1927 55.0608 51.1972 55.0958C51.235 55.3851 51.2755 55.6746 51.3176 55.956C51.3746 56.3371 51.7088 56.6244 52.0952 56.6244H53.4355C53.8219 56.6244 54.1562 56.3371 54.2131 55.956C54.2553 55.6742 54.2958 55.3848 54.3335 55.0958C54.3381 55.0607 54.3618 55.0323 54.394 55.0235C54.8778 54.8901 55.3447 54.6966 55.7816 54.4485C55.811 54.4318 55.848 54.435 55.876 54.4565C56.1074 54.6345 56.3408 54.8106 56.5697 54.9799C56.8794 55.209 57.319 55.1758 57.5922 54.9027L58.5399 53.9549C58.8131 53.6817 58.8463 53.2422 58.6172 52.9324C58.4475 52.7031 58.2714 52.4697 58.0938 52.2387C58.0722 52.2108 58.0691 52.1737 58.0858 52.1444C58.334 51.7073 58.5274 51.2405 58.6608 50.7567C58.6697 50.7245 58.698 50.7008 58.7331 50.6962C59.0219 50.6585 59.3113 50.618 59.5933 50.5758C59.9744 50.5189 60.2617 50.1846 60.2617 49.7982V48.4579C60.2617 48.0716 59.9744 47.7373 59.5933 47.6803ZM59.5616 49.7984C59.5616 49.8408 59.5307 49.8774 59.4898 49.8836C59.2121 49.9252 58.9271 49.965 58.6426 50.0022C58.3275 50.0432 58.0698 50.2664 57.9859 50.5708C57.8679 50.9989 57.6967 51.412 57.4771 51.7987C57.3209 52.0736 57.3452 52.414 57.5389 52.6658C57.7139 52.8933 57.8874 53.1231 58.0544 53.349C58.0791 53.3822 58.075 53.43 58.045 53.46L57.0972 54.4078C57.0671 54.4379 57.0194 54.4419 56.9861 54.4173C56.7607 54.2505 56.5308 54.0771 56.303 53.9018C56.0512 53.708 55.7108 53.6837 55.4359 53.8399C55.0493 54.0595 54.6361 54.2307 54.208 54.3487C53.9036 54.4326 53.6804 54.6904 53.6393 55.0054C53.6022 55.2901 53.5623 55.5751 53.5208 55.8526C53.5147 55.8936 53.478 55.9244 53.4355 55.9244H52.0952C52.0527 55.9244 52.0161 55.8936 52.01 55.8526C51.9685 55.5754 51.9286 55.2904 51.8915 55.0054C51.8504 54.6904 51.6271 54.4326 51.3228 54.3487C50.8946 54.2307 50.4815 54.0595 50.0948 53.8399C49.9743 53.7714 49.8411 53.7376 49.7084 53.7376C49.5385 53.7376 49.3692 53.793 49.2278 53.9018C48.9999 54.0771 48.77 54.2506 48.5447 54.4174C48.5113 54.4419 48.4636 54.4379 48.4336 54.4079L47.4858 53.4601C47.4558 53.4301 47.4517 53.3823 47.4763 53.349C47.6433 53.1234 47.8167 52.8935 47.9918 52.6659C48.1855 52.414 48.2098 52.0738 48.0537 51.7989C47.834 51.4121 47.6629 50.9989 47.5449 50.5709C47.461 50.2666 47.2033 50.0433 46.8882 50.0023C46.6038 49.9651 46.3188 49.9252 46.041 49.8837C46 49.8776 45.9691 49.8409 45.9691 49.7985V48.4581C45.9691 48.4156 46 48.379 46.041 48.3729C46.3188 48.3313 46.6038 48.2914 46.8882 48.2543C47.2032 48.2133 47.461 47.99 47.5449 47.6856C47.6628 47.2577 47.834 46.8445 48.0537 46.4577C48.2098 46.1828 48.1855 45.8425 47.9918 45.5907C47.8172 45.3636 47.6437 45.1338 47.4763 44.9075C47.4517 44.8742 47.4558 44.8264 47.4858 44.7965L48.4336 43.8487C48.4635 43.8186 48.5113 43.8146 48.5446 43.8392C48.77 44.0059 48.9999 44.1794 49.2278 44.3547C49.4796 44.5484 49.8199 44.5727 50.0949 44.4165C50.4815 44.1969 50.8946 44.0257 51.3227 43.9077C51.6271 43.8238 51.8504 43.5661 51.8915 43.251C51.9286 42.9661 51.9685 42.681 52.01 42.4038C52.0161 42.3629 52.0528 42.332 52.0952 42.332H53.4356C53.478 42.332 53.5147 42.3628 53.5208 42.4038C53.5623 42.681 53.6022 42.966 53.6394 43.251C53.6804 43.5661 53.9037 43.8238 54.2081 43.9077C54.6362 44.0257 55.0493 44.1969 55.436 44.4165C55.7109 44.5726 56.0512 44.5484 56.303 44.3546C56.5309 44.1793 56.7608 44.0059 56.9861 43.8392C57.0194 43.8145 57.0672 43.8186 57.0972 43.8486L58.045 44.7964C58.075 44.8264 58.0791 44.8742 58.0545 44.9075C57.8874 45.1334 57.714 45.3632 57.539 45.5906C57.3453 45.8425 57.321 46.1828 57.4771 46.4577C57.6968 46.8444 57.868 47.2575 57.986 47.6856C58.0699 47.99 58.3277 48.2132 58.6426 48.2543C58.9271 48.2914 59.2122 48.3313 59.4899 48.3728C59.5308 48.3789 59.5617 48.4156 59.5617 48.458V49.7984H59.5616Z" stroke="#3578FE" stroke-width="0.204445" mask="url(#path-4-outside-1)"/>
<path d="M52.7653 45.8227C50.9426 45.8227 49.4599 47.3054 49.4599 49.1281C49.4599 50.9507 50.9426 52.4335 52.7653 52.4335C54.5879 52.4335 56.0707 50.9507 56.0707 49.1281C56.0707 47.3054 54.5879 45.8227 52.7653 45.8227ZM52.7653 51.6311C51.3851 51.6311 50.2622 50.5082 50.2622 49.1281C50.2622 47.7479 51.3851 46.625 52.7653 46.625C54.1454 46.625 55.2683 47.7479 55.2683 49.1281C55.2683 50.5082 54.1454 51.6311 52.7653 51.6311Z" fill="#3578FE" stroke="#3578FE" stroke-width="0.102222"/>
<circle cx="45.9505" cy="38.2245" r="2.28297" stroke="#3578FE" stroke-width="0.885928"/>
<circle cx="42.5431" cy="38.2245" r="2.28297" fill="#F0F3FE" stroke="#3578FE" stroke-width="0.885928"/>
<path d="M25.506 43.6763H32.3209" stroke="#3578FE" stroke-width="1.02222" stroke-linecap="round"/>
<path opacity="0.37" fill-rule="evenodd" clip-rule="evenodd" d="M55.4913 23.3748H28.232C27.6675 23.3748 27.2098 23.8324 27.2098 24.397V26.3249H56.5136V24.397C56.5136 23.8324 56.0559 23.3748 55.4913 23.3748ZM26.1876 26.3249V27.1427V29.5303V30.348V40.0711C26.1876 41.2002 27.1029 42.1156 28.232 42.1156H55.4913C56.6205 42.1156 57.5358 41.2002 57.5358 40.0711V24.397C57.5358 23.2679 56.6205 22.3525 55.4913 22.3525H28.232C27.1029 22.3525 26.1876 23.2679 26.1876 24.397V26.3249ZM27.2098 30.348V40.0711C27.2098 40.6357 27.6675 41.0933 28.232 41.0933H55.4913C56.0559 41.0933 56.5136 40.6357 56.5136 40.0711V30.348H27.2098ZM56.5136 29.5303V27.1427H27.2098V29.5303H56.5136Z" fill="#0089FF"/>
<path d="M24.8246 47.7651H27.5505" stroke="#3578FE" stroke-width="1.02222" stroke-linecap="round"/>
<path d="M29.5949 47.7651H32.3209" stroke="#3578FE" stroke-width="1.02222" stroke-linecap="round"/>
<path d="M34.3653 47.7651H37.0913" stroke="#3578FE" stroke-width="1.02222" stroke-linecap="round"/>
<path d="M39.1357 47.7651H41.8616" stroke="#3578FE" stroke-width="1.02222" stroke-linecap="round"/>
<path d="M35.0468 43.6763H35.7283" stroke="#3578FE" stroke-width="1.02222" stroke-linecap="round"/>
</svg>
