<svg width="81" height="74" viewBox="0 0 81 74" fill="none" xmlns="http://www.w3.org/2000/svg">
<path opacity="0.05" d="M15.511 11.1103C-7.69894 35.488 1.21764 56.4233 8.57718 63.8437C22.6811 76.8372 42.9598 75.1648 57.2647 70.8625C65.0473 68.5219 72.6953 64.4369 76.7042 57.3675C84.6213 43.4061 78.3451 25.747 72.4751 18.171C49.4773 -10.9108 24.3303 1.31785 15.511 11.1103Z" fill="#3578FE"/>
<path opacity="0.37" d="M22.9287 25.7903H58.0514V51.3757H23.088" stroke="#0089FF" stroke-width="0.898481" stroke-linecap="round" stroke-linejoin="round"/>
<path d="M26.8312 29.6528V24.4212C26.8312 23.4288 27.6357 22.6243 28.6282 22.6243H60.1569C61.1494 22.6243 61.9539 23.4288 61.9539 24.4212V46.4127C61.9539 47.4051 61.1494 48.2097 60.1569 48.2097H28.1453C27.5075 48.2097 26.9905 47.6926 26.9905 47.0548V47.0548" stroke="#3578FE" stroke-width="1.10214" stroke-linecap="round" stroke-linejoin="round"/>
<path d="M61.0665 23.3276L44.2949 37.1043L27.5232 23.3276" stroke="#3578FE" stroke-width="1.10214" stroke-linecap="round" stroke-linejoin="round"/>
<path d="M22.2319 31.7634H27.2892" stroke="#3578FE" stroke-width="1.10214" stroke-linecap="round" stroke-linejoin="round"/>
<path d="M56.3443 39.4885H61.9532" stroke="#3578FE" stroke-width="1.10214" stroke-linecap="round" stroke-linejoin="round"/>
<path d="M51.8204 34.5344L61.954 34.5344" stroke="#3578FE" stroke-width="1.10214" stroke-linecap="round" stroke-linejoin="round"/>
<path d="M19.0461 37.4575H31.7492" stroke="#3578FE" stroke-width="1.10214" stroke-linecap="round" stroke-linejoin="round"/>
<path d="M24.1036 43.1523H36.8266" stroke="#3578FE" stroke-width="1.10214" stroke-linecap="round" stroke-linejoin="round"/>
</svg>
