<svg width="81" height="74" viewBox="0 0 81 74" fill="none" xmlns="http://www.w3.org/2000/svg">
<path opacity="0.05" d="M15.511 11.1104C-7.69896 35.4881 1.21763 56.4234 8.57716 63.8438C22.6811 76.8372 42.9598 75.1648 57.2647 70.8626C65.0473 68.5219 72.6953 64.4369 76.7041 57.3676C84.6213 43.4061 78.3451 25.7471 72.4751 18.1711C49.4773 -10.9107 24.3303 1.31793 15.511 11.1104Z" fill="#3578FE"/>
<mask id="path-2-inside-1" fill="white">
<path d="M58.8262 33.4117L48.374 22.9587C47.5658 22.1505 46.2514 22.1505 45.4431 22.9587L43.5419 24.8585C42.9171 25.4848 42.7824 26.4125 43.1261 27.1756L41.6821 28.6196L41.2467 28.1848C40.6015 27.5397 39.7437 27.1836 38.8306 27.1836C38.5444 27.1836 38.2677 27.2302 37.9968 27.2987C37.9146 26.9273 37.734 26.5727 37.4456 26.2843L35.5451 24.3831C34.7368 23.5762 33.4225 23.577 32.6142 24.3838L22.1605 34.8367C21.3537 35.645 21.3777 36.9593 22.1853 37.7676L24.1098 39.6681C24.4739 40.0715 25.0208 40.2732 25.5509 40.2732C25.6849 40.2732 25.8058 40.2601 25.9376 40.2347C25.9696 41.0648 26.2856 41.8862 26.9177 42.5182L27.3502 42.9537L26.9133 43.3891C25.8436 44.4588 25.8429 46.1999 26.9126 47.2695C27.3735 47.7305 27.959 47.9802 28.5612 48.0443C28.3587 48.9341 28.5961 49.9048 29.2879 50.5958C29.8231 51.131 30.5258 51.3983 31.2285 51.3983C31.4338 51.3983 31.6377 51.3684 31.8387 51.3225C31.9028 51.9247 32.1525 52.5102 32.6135 52.9711C33.1487 53.5063 33.8513 53.7736 34.554 53.7736C34.7594 53.7736 34.964 53.7437 35.165 53.6978C35.2291 54.3 35.4788 54.8862 35.9398 55.3472C36.475 55.8824 37.1776 56.1496 37.8803 56.1496C38.5648 56.1496 39.2471 55.8911 39.7765 55.3828L40.2156 55.8219C40.7508 56.3571 41.4535 56.6244 42.1562 56.6244C42.8589 56.6244 43.5608 56.3571 44.096 55.8219C44.4375 55.4804 44.6574 55.0675 44.7812 54.6328C45.2691 55.0027 45.848 55.1986 46.432 55.1986C47.1347 55.1986 47.8374 54.9314 48.3726 54.3962C48.7563 54.0124 48.9959 53.5413 49.1044 53.0476C49.4627 53.2092 49.8464 53.2981 50.2323 53.2981C50.935 53.2981 51.6377 53.0308 52.1729 52.4956C52.6914 51.9779 52.9768 51.2883 52.9768 50.5551C52.9768 50.1582 52.8865 49.7774 52.7278 49.4264C53.2208 49.3179 53.6912 49.0776 54.0742 48.6946C55.1439 47.6242 55.1431 45.8831 54.0742 44.8141L52.213 42.9529L54.0742 41.0917C54.7062 40.4597 55.0281 39.6383 55.0601 38.8089C55.1919 38.8344 55.3252 38.8475 55.4592 38.8475C55.99 38.8475 56.5208 38.6458 56.9242 38.2416L58.8248 36.3411C59.6345 35.5336 59.6345 34.2199 58.8262 33.4117ZM25.0922 38.6378L23.1923 36.738C22.9521 36.4984 22.9521 36.1066 23.1916 35.8671L33.6445 25.4149C33.8834 25.1746 34.2751 25.1753 34.5154 25.4141L36.4152 27.3147C36.6555 27.5542 36.6555 27.946 36.416 28.1856L34.0399 30.5609L28.8131 35.787L26.9126 37.6875L25.963 38.637C25.7242 38.8781 25.331 38.8781 25.0922 38.6378ZM27.943 44.4195C28.1942 44.1682 28.5233 44.043 28.8532 44.043C29.1823 44.043 29.5129 44.1682 29.7634 44.4195C30.0066 44.6627 30.1406 44.986 30.1406 45.3297C30.1406 45.6734 30.0066 45.996 29.7634 46.2392C29.2609 46.7416 28.4447 46.7416 27.9422 46.2392C27.4412 45.7375 27.4412 44.9219 27.943 44.4195ZM30.3183 49.5662C29.8158 49.0638 29.8158 48.2475 30.3183 47.745L30.7937 47.2695L31.2692 46.794C31.7564 46.3091 32.604 46.3091 33.0897 46.794C33.5921 47.2965 33.5921 48.1128 33.0897 48.6152L32.6142 49.0907L32.1387 49.5662C31.637 50.0686 30.8207 50.0672 30.3183 49.5662ZM33.6445 51.9415C33.1428 51.4391 33.1428 50.6235 33.6445 50.1211C33.8958 49.8698 34.2249 49.7446 34.5548 49.7446C34.8846 49.7446 35.2145 49.8698 35.465 50.1211C35.9667 50.6235 35.9667 51.4391 35.465 51.9415C34.9633 52.4439 34.1463 52.4439 33.6445 51.9415ZM38.7913 54.3175C38.2888 54.8192 37.4733 54.8207 36.9708 54.3175C36.4684 53.8151 36.4684 52.9988 36.9708 52.4964C37.2221 52.2451 37.5512 52.1199 37.8803 52.1199C38.2102 52.1199 38.5401 52.2451 38.7905 52.4964C39.293 52.9988 39.293 53.8151 38.7913 54.3175ZM53.0453 47.6657C52.5436 48.1674 51.7273 48.1688 51.2241 47.6657L48.8488 45.2896L46.0377 42.4785C45.7532 42.194 45.2919 42.194 45.0073 42.4785C44.7228 42.763 44.7228 43.2244 45.0073 43.5089L51.144 49.6456C51.3872 49.8888 51.5212 50.2121 51.5212 50.5551C51.5212 50.8995 51.3872 51.2221 51.144 51.4653C50.6416 51.9677 49.8253 51.9677 49.3228 51.4653L48.3733 50.5157L46.9475 49.09L43.1869 45.3293C42.9024 45.0448 42.4411 45.0448 42.1565 45.3293C41.872 45.6138 41.872 46.0752 42.1565 46.3597L45.9172 50.1203L47.3429 51.5461C47.8447 52.0478 47.8447 52.8641 47.3429 53.3665C46.8405 53.869 46.0242 53.869 45.5218 53.3665L44.096 51.9408L40.3354 48.1801C40.0508 47.8956 39.5895 47.8956 39.305 48.1801C39.0205 48.4646 39.0205 48.926 39.305 49.2105L43.0657 52.9711C43.5681 53.4736 43.5681 54.2899 43.0657 54.7923C42.5625 55.2933 41.7469 55.2933 41.2452 54.7923L40.5287 54.0758C40.7559 53.1699 40.5258 52.1723 39.8195 51.4653C39.1277 50.7735 38.1578 50.5361 37.2687 50.7386C37.2046 50.1364 36.9548 49.5509 36.4939 49.09C36.033 48.629 35.4468 48.3793 34.8446 48.3152C35.047 47.4254 34.8096 46.4547 34.1179 45.7637C33.4268 45.0726 32.4569 44.8345 31.5678 45.037C31.5015 44.4151 31.2408 43.8362 30.7923 43.3884C30.2877 42.8837 29.6338 42.626 28.9711 42.5976L28.8517 42.4782L28.8918 42.4381L27.9415 41.4878C27.1791 40.7254 27.1776 39.4854 27.9379 38.7215L37.4456 29.2145L37.4471 29.213C38.1869 28.4747 39.475 28.4761 40.2156 29.2145L40.651 29.6492L37.8396 32.4607L36.4145 33.8864C35.7694 34.5309 35.4133 35.3887 35.4133 36.3018C35.4133 37.2142 35.7686 38.0727 36.4145 38.7179C37.7463 40.0497 39.9134 40.0497 41.2452 38.7179L43.2269 36.7355C43.4222 36.5402 43.7388 36.5402 43.9341 36.7354L53.0453 45.8452C53.547 46.3462 53.547 47.1632 53.0453 47.6657ZM53.0453 40.0628L51.1841 41.924L44.2891 35.0291C43.8986 34.6385 43.2653 34.6386 42.8748 35.0291L40.2163 37.6882C39.4532 38.4514 38.2102 38.4528 37.4456 37.6882C37.0757 37.3176 36.8718 36.8261 36.8718 36.3025C36.8718 35.7797 37.0757 35.2874 37.4456 34.9175L40.2964 32.0667L44.0574 28.3057L53.0489 37.2972C53.8084 38.0603 53.8077 39.3004 53.0453 40.0628ZM57.7966 35.3122L55.8961 37.2127C55.6558 37.453 55.2655 37.453 55.0252 37.2127L54.0785 36.2661C54.0785 36.2661 54.0771 36.2639 54.0756 36.2625L52.6499 34.8367L47.4238 29.6099L46.7298 28.9159L44.5737 26.7598C44.3334 26.5202 44.3334 26.1285 44.573 25.8889L46.4735 23.9891C46.5937 23.869 46.7509 23.8092 46.909 23.8092C47.067 23.8092 47.2243 23.869 47.3444 23.9891L57.7973 34.442C58.0362 34.6816 58.0362 35.0719 57.7966 35.3122Z"/>
</mask>
<path d="M58.8262 33.4117L48.374 22.9587C47.5658 22.1505 46.2514 22.1505 45.4431 22.9587L43.5419 24.8585C42.9171 25.4848 42.7824 26.4125 43.1261 27.1756L41.6821 28.6196L41.2467 28.1848C40.6015 27.5397 39.7437 27.1836 38.8306 27.1836C38.5444 27.1836 38.2677 27.2302 37.9968 27.2987C37.9146 26.9273 37.734 26.5727 37.4456 26.2843L35.5451 24.3831C34.7368 23.5762 33.4225 23.577 32.6142 24.3838L22.1605 34.8367C21.3537 35.645 21.3777 36.9593 22.1853 37.7676L24.1098 39.6681C24.4739 40.0715 25.0208 40.2732 25.5509 40.2732C25.6849 40.2732 25.8058 40.2601 25.9376 40.2347C25.9696 41.0648 26.2856 41.8862 26.9177 42.5182L27.3502 42.9537L26.9133 43.3891C25.8436 44.4588 25.8429 46.1999 26.9126 47.2695C27.3735 47.7305 27.959 47.9802 28.5612 48.0443C28.3587 48.9341 28.5961 49.9048 29.2879 50.5958C29.8231 51.131 30.5258 51.3983 31.2285 51.3983C31.4338 51.3983 31.6377 51.3684 31.8387 51.3225C31.9028 51.9247 32.1525 52.5102 32.6135 52.9711C33.1487 53.5063 33.8513 53.7736 34.554 53.7736C34.7594 53.7736 34.964 53.7437 35.165 53.6978C35.2291 54.3 35.4788 54.8862 35.9398 55.3472C36.475 55.8824 37.1776 56.1496 37.8803 56.1496C38.5648 56.1496 39.2471 55.8911 39.7765 55.3828L40.2156 55.8219C40.7508 56.3571 41.4535 56.6244 42.1562 56.6244C42.8589 56.6244 43.5608 56.3571 44.096 55.8219C44.4375 55.4804 44.6574 55.0675 44.7812 54.6328C45.2691 55.0027 45.848 55.1986 46.432 55.1986C47.1347 55.1986 47.8374 54.9314 48.3726 54.3962C48.7563 54.0124 48.9959 53.5413 49.1044 53.0476C49.4627 53.2092 49.8464 53.2981 50.2323 53.2981C50.935 53.2981 51.6377 53.0308 52.1729 52.4956C52.6914 51.9779 52.9768 51.2883 52.9768 50.5551C52.9768 50.1582 52.8865 49.7774 52.7278 49.4264C53.2208 49.3179 53.6912 49.0776 54.0742 48.6946C55.1439 47.6242 55.1431 45.8831 54.0742 44.8141L52.213 42.9529L54.0742 41.0917C54.7062 40.4597 55.0281 39.6383 55.0601 38.8089C55.1919 38.8344 55.3252 38.8475 55.4592 38.8475C55.99 38.8475 56.5208 38.6458 56.9242 38.2416L58.8248 36.3411C59.6345 35.5336 59.6345 34.2199 58.8262 33.4117ZM25.0922 38.6378L23.1923 36.738C22.9521 36.4984 22.9521 36.1066 23.1916 35.8671L33.6445 25.4149C33.8834 25.1746 34.2751 25.1753 34.5154 25.4141L36.4152 27.3147C36.6555 27.5542 36.6555 27.946 36.416 28.1856L34.0399 30.5609L28.8131 35.787L26.9126 37.6875L25.963 38.637C25.7242 38.8781 25.331 38.8781 25.0922 38.6378ZM27.943 44.4195C28.1942 44.1682 28.5233 44.043 28.8532 44.043C29.1823 44.043 29.5129 44.1682 29.7634 44.4195C30.0066 44.6627 30.1406 44.986 30.1406 45.3297C30.1406 45.6734 30.0066 45.996 29.7634 46.2392C29.2609 46.7416 28.4447 46.7416 27.9422 46.2392C27.4412 45.7375 27.4412 44.9219 27.943 44.4195ZM30.3183 49.5662C29.8158 49.0638 29.8158 48.2475 30.3183 47.745L30.7937 47.2695L31.2692 46.794C31.7564 46.3091 32.604 46.3091 33.0897 46.794C33.5921 47.2965 33.5921 48.1128 33.0897 48.6152L32.6142 49.0907L32.1387 49.5662C31.637 50.0686 30.8207 50.0672 30.3183 49.5662ZM33.6445 51.9415C33.1428 51.4391 33.1428 50.6235 33.6445 50.1211C33.8958 49.8698 34.2249 49.7446 34.5548 49.7446C34.8846 49.7446 35.2145 49.8698 35.465 50.1211C35.9667 50.6235 35.9667 51.4391 35.465 51.9415C34.9633 52.4439 34.1463 52.4439 33.6445 51.9415ZM38.7913 54.3175C38.2888 54.8192 37.4733 54.8207 36.9708 54.3175C36.4684 53.8151 36.4684 52.9988 36.9708 52.4964C37.2221 52.2451 37.5512 52.1199 37.8803 52.1199C38.2102 52.1199 38.5401 52.2451 38.7905 52.4964C39.293 52.9988 39.293 53.8151 38.7913 54.3175ZM53.0453 47.6657C52.5436 48.1674 51.7273 48.1688 51.2241 47.6657L48.8488 45.2896L46.0377 42.4785C45.7532 42.194 45.2919 42.194 45.0073 42.4785C44.7228 42.763 44.7228 43.2244 45.0073 43.5089L51.144 49.6456C51.3872 49.8888 51.5212 50.2121 51.5212 50.5551C51.5212 50.8995 51.3872 51.2221 51.144 51.4653C50.6416 51.9677 49.8253 51.9677 49.3228 51.4653L48.3733 50.5157L46.9475 49.09L43.1869 45.3293C42.9024 45.0448 42.4411 45.0448 42.1565 45.3293C41.872 45.6138 41.872 46.0752 42.1565 46.3597L45.9172 50.1203L47.3429 51.5461C47.8447 52.0478 47.8447 52.8641 47.3429 53.3665C46.8405 53.869 46.0242 53.869 45.5218 53.3665L44.096 51.9408L40.3354 48.1801C40.0508 47.8956 39.5895 47.8956 39.305 48.1801C39.0205 48.4646 39.0205 48.926 39.305 49.2105L43.0657 52.9711C43.5681 53.4736 43.5681 54.2899 43.0657 54.7923C42.5625 55.2933 41.7469 55.2933 41.2452 54.7923L40.5287 54.0758C40.7559 53.1699 40.5258 52.1723 39.8195 51.4653C39.1277 50.7735 38.1578 50.5361 37.2687 50.7386C37.2046 50.1364 36.9548 49.5509 36.4939 49.09C36.033 48.629 35.4468 48.3793 34.8446 48.3152C35.047 47.4254 34.8096 46.4547 34.1179 45.7637C33.4268 45.0726 32.4569 44.8345 31.5678 45.037C31.5015 44.4151 31.2408 43.8362 30.7923 43.3884C30.2877 42.8837 29.6338 42.626 28.9711 42.5976L28.8517 42.4782L28.8918 42.4381L27.9415 41.4878C27.1791 40.7254 27.1776 39.4854 27.9379 38.7215L37.4456 29.2145L37.4471 29.213C38.1869 28.4747 39.475 28.4761 40.2156 29.2145L40.651 29.6492L37.8396 32.4607L36.4145 33.8864C35.7694 34.5309 35.4133 35.3887 35.4133 36.3018C35.4133 37.2142 35.7686 38.0727 36.4145 38.7179C37.7463 40.0497 39.9134 40.0497 41.2452 38.7179L43.2269 36.7355C43.4222 36.5402 43.7388 36.5402 43.9341 36.7354L53.0453 45.8452C53.547 46.3462 53.547 47.1632 53.0453 47.6657ZM53.0453 40.0628L51.1841 41.924L44.2891 35.0291C43.8986 34.6385 43.2653 34.6386 42.8748 35.0291L40.2163 37.6882C39.4532 38.4514 38.2102 38.4528 37.4456 37.6882C37.0757 37.3176 36.8718 36.8261 36.8718 36.3025C36.8718 35.7797 37.0757 35.2874 37.4456 34.9175L40.2964 32.0667L44.0574 28.3057L53.0489 37.2972C53.8084 38.0603 53.8077 39.3004 53.0453 40.0628ZM57.7966 35.3122L55.8961 37.2127C55.6558 37.453 55.2655 37.453 55.0252 37.2127L54.0785 36.2661C54.0785 36.2661 54.0771 36.2639 54.0756 36.2625L52.6499 34.8367L47.4238 29.6099L46.7298 28.9159L44.5737 26.7598C44.3334 26.5202 44.3334 26.1285 44.573 25.8889L46.4735 23.9891C46.5937 23.869 46.7509 23.8092 46.909 23.8092C47.067 23.8092 47.2243 23.869 47.3444 23.9891L57.7973 34.442C58.0362 34.6816 58.0362 35.0719 57.7966 35.3122Z" fill="#0089FF" stroke="#F0F3FE" stroke-width="0.3" mask="url(#path-2-inside-1)"/>
<path opacity="0.37" d="M55.6298 34.9866L47.0094 26.3662" stroke="#0089FF" stroke-width="0.8" stroke-linecap="round"/>
<path opacity="0.37" d="M25.3978 36.4436L34.0182 27.8232" stroke="#0089FF" stroke-width="0.8" stroke-linecap="round"/>
</svg>
