<svg width="78" height="74" viewBox="0 0 78 74" fill="none" xmlns="http://www.w3.org/2000/svg">
<path opacity="0.05" d="M63.391 11.7299C86.0455 35.5242 77.3423 55.9585 70.1589 63.2013C56.3924 75.8838 36.5991 74.2514 22.6365 70.0521C15.0402 67.7675 7.5752 63.7802 3.66228 56.88C-4.0654 43.2527 2.06062 26.0163 7.79012 18.6216C30.2376 -9.76422 54.7827 2.17178 63.391 11.7299Z" fill="#3578FE"/>
<path d="M48.6228 37.1792V24.0059C48.6228 21.1875 46.3381 18.9027 43.5197 18.9027H32.5288C29.7104 18.9027 27.4256 21.1875 27.4256 24.0059L27.4256 47.5492C27.4256 50.3676 29.7104 52.6523 32.5288 52.6523H42.3084" stroke="#3578FE" stroke-width="1.11631" stroke-linecap="round"/>
<path d="M24.2381 18.9028C20.347 20.6161 21.8571 26.8003 24.2381 27.3089H43.8044C41.4234 26.8003 39.9133 20.6161 43.8044 18.9028H24.2381Z" fill="#F5F8FF" stroke="#3578FE" stroke-width="1.11631"/>
<path d="M35.8224 33.5869H44.2859" stroke="#3578FE" stroke-width="1.11631" stroke-linecap="round"/>
<path d="M31.5907 33.5869H33.252" stroke="#3578FE" stroke-width="1.11631" stroke-linecap="round"/>
<path d="M35.8224 37.8499H44.2859" stroke="#3578FE" stroke-width="1.11631" stroke-linecap="round"/>
<path d="M31.5907 37.8499H33.252" stroke="#3578FE" stroke-width="1.11631" stroke-linecap="round"/>
<path d="M35.8224 42.113H41.5901" stroke="#3578FE" stroke-width="1.11631" stroke-linecap="round"/>
<path d="M31.5907 42.113H33.252" stroke="#3578FE" stroke-width="1.11631" stroke-linecap="round"/>
<path d="M35.8224 46.3759H40.0541" stroke="#3578FE" stroke-width="1.11631" stroke-linecap="round"/>
<path d="M31.5907 46.3759H33.252" stroke="#3578FE" stroke-width="1.11631" stroke-linecap="round"/>
<circle cx="49.2667" cy="46.2166" r="6.88064" fill="#3578FE"/>
<path d="M46.3827 46.3759H52.1504" stroke="#F5F8FF" stroke-width="1.11631" stroke-linecap="round"/>
<path d="M49.2666 49.2599L49.2666 43.4922" stroke="#F5F8FF" stroke-width="1.11631" stroke-linecap="round"/>
</svg>
