<svg width="78" height="74" viewBox="0 0 78 74" fill="none" xmlns="http://www.w3.org/2000/svg">
<path opacity="0.05" d="M14.609 62.2701C-8.04547 38.4758 0.657721 18.0415 7.84113 10.7987C21.6076 -1.88381 41.4009 -0.251442 55.3635 3.94787C62.9598 6.23249 70.4248 10.2197 74.3377 17.1199C82.0654 30.7472 75.9394 47.9837 70.2099 55.3784C47.7624 83.7642 23.2173 71.8282 14.609 62.2701Z" fill="#3578FE"/>
<path d="M52.7937 21.5661L33.7338 21.5661C32.4986 21.5661 31.4974 22.5673 31.4974 23.8025L31.4974 35.8227C31.4974 37.0578 32.4986 38.0591 33.7338 38.0591L52.7937 38.0591C54.0288 38.0591 55.0301 37.0578 55.0301 35.8227L55.0301 23.8025C55.0301 22.5673 54.0288 21.5661 52.7937 21.5661Z" stroke="#3578FE" stroke-width="0.782733"/>
<path d="M33.8216 23.6839L41.9691 30.2912C42.7992 30.9644 43.9896 30.9561 44.8103 30.2715L52.7064 23.6845" stroke="#3578FE" stroke-width="0.782733" stroke-linecap="round"/>
<path d="M52.8163 35.8603L47.5517 30.4634" stroke="#3578FE" stroke-width="0.782733" stroke-linecap="round"/>
<path d="M33.6147 35.8605L38.6 30.4636" stroke="#3578FE" stroke-width="0.782733" stroke-linecap="round"/>
<path d="M44.6467 35.941L25.5867 35.941C24.3516 35.941 23.3503 36.9422 23.3503 38.1773L23.3503 50.1976C23.3503 51.4327 24.3516 52.4339 25.5867 52.4339L44.6467 52.434C45.8818 52.434 46.8831 51.4327 46.8831 50.1976L46.8831 38.1773C46.8831 36.9422 45.8818 35.941 44.6467 35.941Z" fill="#3578FE" stroke="#3578FE" stroke-width="0.782733"/>
<path d="M25.6744 38.059L33.8219 44.6663C34.652 45.3395 35.8424 45.3312 36.6631 44.6466L44.5593 38.0596" stroke="#F5F8FF" stroke-width="0.782733" stroke-linecap="round"/>
<path d="M44.6691 50.2353L39.4045 44.8384" stroke="#F5F8FF" stroke-width="0.782733" stroke-linecap="round"/>
<path d="M25.4676 50.2355L30.4529 44.8386" stroke="#F5F8FF" stroke-width="0.782733" stroke-linecap="round"/>
<path d="M57.7228 43.0363L50.184 42.9425" stroke="#3578FE" stroke-width="0.782733" stroke-linecap="round"/>
<path d="M58.8464 45.7583L51.3076 45.6646" stroke="#3578FE" stroke-width="0.782733" stroke-linecap="round"/>
<path d="M56.6326 48.7115L49.0938 48.6177" stroke="#3578FE" stroke-width="0.782733" stroke-linecap="round"/>
<path d="M27.7825 25.3822L20.2437 25.2885" stroke="#3578FE" stroke-width="0.782733" stroke-linecap="round"/>
<path d="M28.9062 28.1042L21.3674 28.0105" stroke="#3578FE" stroke-width="0.782733" stroke-linecap="round"/>
<path d="M26.6924 31.0574L19.1536 30.9636" stroke="#3578FE" stroke-width="0.782733" stroke-linecap="round"/>
</svg>
