<svg width="78" height="74" viewBox="0 0 78 74" fill="none" xmlns="http://www.w3.org/2000/svg">
<path opacity="0.05" d="M63.391 62.2701C86.0455 38.4758 77.3423 18.0415 70.1589 10.7987C56.3924 -1.88381 36.5991 -0.251442 22.6365 3.94787C15.0402 6.23249 7.5752 10.2197 3.66228 17.1199C-4.0654 30.7472 2.06062 47.9837 7.79012 55.3784C30.2376 83.7642 54.7827 71.8282 63.391 62.2701Z" fill="#3578FE"/>
<path d="M49.7515 52.4391V21.5607C49.7515 21.1696 49.4344 20.8525 49.0433 20.8525H25.8137C25.4226 20.8525 25.1055 21.1696 25.1055 21.5607L25.1055 52.4391C25.1055 52.8302 25.4226 53.1473 25.8137 53.1473H49.0433C49.4344 53.1473 49.7515 52.8302 49.7515 52.4391Z" stroke="#3578FE" stroke-width="0.991508"/>
<path d="M28.8944 47.4841L30.9558 49.5455L34.6664 45.8349" stroke="#3578FE" stroke-width="1.03071" stroke-linecap="round" stroke-linejoin="round"/>
<path d="M29.8859 24.7138H44.971" stroke="#3578FE" stroke-width="0.991508" stroke-linecap="round"/>
<path d="M29.8859 28.8215H44.971" stroke="#3578FE" stroke-width="0.991508" stroke-linecap="round"/>
<path d="M29.8859 32.9292H39.4469" stroke="#3578FE" stroke-width="0.991508" stroke-linecap="round"/>
<rect x="41.3453" y="31.5504" width="21.9044" height="12.9081" rx="1.29738" transform="rotate(10.3328 41.3453 31.5504)" fill="#3578FE"/>
<path d="M40.5941 35.6712L62.1433 39.6001" stroke="#F5F8FF" stroke-width="1.62172"/>
<circle cx="56.3778" cy="42.6001" r="1.45732" transform="rotate(10.3328 56.3778 42.6001)" fill="#F5F8FF"/>
<circle cx="58.3343" cy="42.9569" r="1.66003" transform="rotate(10.3328 58.3343 42.9569)" fill="#F5F8FF" stroke="#3578FE" stroke-width="0.405431"/>
<rect x="41.6806" y="37.8499" width="5.51321" height="2.03709" rx="0.486517" transform="rotate(10.3328 41.6806 37.8499)" fill="#F5F8FF"/>
</svg>
