<svg width="78" height="74" viewBox="0 0 78 74" fill="none" xmlns="http://www.w3.org/2000/svg">
<path opacity="0.05" d="M63.391 11.7299C86.0455 35.5242 77.3423 55.9584 70.1589 63.2013C56.3924 75.8838 36.5991 74.2514 22.6365 70.0521C15.0402 67.7674 7.5752 63.7802 3.66228 56.88C-4.0654 43.2527 2.06062 26.0163 7.79012 18.6216C30.2376 -9.76425 54.7827 2.17175 63.391 11.7299Z" fill="#3578FE"/>
<path d="M28.5297 27.9371L28.5298 24.4956C28.5298 23.2501 29.5395 22.2404 30.785 22.2404H50.4351C51.6806 22.2404 52.6903 23.2501 52.6903 24.4956V49.5042C52.6903 50.7497 51.6806 51.7594 50.4351 51.7594H30.785C29.5394 51.7594 28.5297 50.7497 28.5297 49.5042L28.5297 46.0628" stroke="#3578FE" stroke-width="1.05244" stroke-linecap="round"/>
<path d="M25.6967 30.841H31.363" stroke="#3578FE" stroke-width="1.05" stroke-linecap="round"/>
<path d="M25.6967 34.9005H31.363" stroke="#3578FE" stroke-width="1.05" stroke-linecap="round"/>
<path d="M25.6967 38.9599H31.363" stroke="#3578FE" stroke-width="1.05" stroke-linecap="round"/>
<path d="M25.6967 43.0192H31.363" stroke="#3578FE" stroke-width="1.05" stroke-linecap="round"/>
<circle cx="42.0661" cy="33.7186" r="3.93684" fill="#3578FE"/>
<path d="M47.5155 43.8421C48.2629 43.8421 48.8827 43.2299 48.7279 42.4988C48.6413 42.0901 48.5153 41.6894 48.3508 41.302C48.009 40.4967 47.5079 39.765 46.8762 39.1486C46.2445 38.5322 45.4946 38.0433 44.6692 37.7098C43.8439 37.3762 42.9593 37.2045 42.066 37.2045C41.1726 37.2045 40.288 37.3762 39.4627 37.7098C38.6373 38.0433 37.8874 38.5323 37.2557 39.1486C36.624 39.765 36.1229 40.4967 35.7811 41.302C35.6166 41.6894 35.4906 42.0901 35.404 42.4988C35.2492 43.2299 35.8691 43.8421 36.6164 43.8421L42.066 43.8421H47.5155Z" fill="#3578FE"/>
</svg>
