<svg width="78" height="74" viewBox="0 0 78 74" fill="none" xmlns="http://www.w3.org/2000/svg">
<path opacity="0.05" d="M14.609 11.7299C-8.04547 35.5242 0.657721 55.9584 7.84113 63.2013C21.6076 75.8838 41.4009 74.2514 55.3635 70.0521C62.9598 67.7674 70.4248 63.7802 74.3377 56.88C82.0654 43.2527 75.9394 26.0163 70.2099 18.6216C47.7624 -9.76425 23.2173 2.17175 14.609 11.7299Z" fill="#3578FE"/>
<path d="M50.4387 50.9543V20.0759C50.4387 19.6847 50.1216 19.3676 49.7305 19.3676H31.347C31.1491 19.3676 30.9602 19.4504 30.8261 19.5959L25.9801 24.855C25.8596 24.9858 25.7927 25.1571 25.7927 25.3349V50.9543C25.7927 51.3454 26.1097 51.6625 26.5009 51.6625H49.7305C50.1216 51.6625 50.4387 51.3454 50.4387 50.9543Z" stroke="#3578FE" stroke-width="1.05"/>
<path d="M30.5449 19.9012L26.2306 24.5831C26.0633 24.7646 26.1921 25.0584 26.4389 25.0584H30.3283C30.7194 25.0584 31.0365 24.7413 31.0365 24.3501V20.0931C31.0365 19.8351 30.7197 19.7114 30.5449 19.9012Z" fill="#3578FE"/>
<path d="M30.6086 30.4158H45.6937" stroke="#3578FE" stroke-width="1.05" stroke-linecap="round"/>
<path d="M30.6086 34.5235H45.6937" stroke="#3578FE" stroke-width="1.05" stroke-linecap="round"/>
<path d="M30.6086 38.6313H45.6937" stroke="#3578FE" stroke-width="1.05" stroke-linecap="round"/>
<path d="M30.6086 42.7389H45.6937" stroke="#3578FE" stroke-width="1.05" stroke-linecap="round"/>
<path d="M41.705 50.7955L50.4547 42.0457C50.8083 41.6922 51.3816 41.6922 51.7352 42.0457L54.2961 44.6066C54.6496 44.9602 54.6496 45.5335 54.2961 45.8871L45.5463 54.6368L41.705 50.7955Z" fill="#3578FE"/>
<path d="M52.2687 41.5122C51.9151 41.1586 51.9151 40.5854 52.2687 40.2318L53.229 39.2714C53.5826 38.9179 54.1559 38.9179 54.5094 39.2714L57.0703 41.8323C57.4239 42.1859 57.4239 42.7592 57.0703 43.1128L56.11 44.0731C55.7564 44.4267 55.1831 44.4267 54.8296 44.0731L52.2687 41.5122Z" fill="#3578FE"/>
<path d="M41.8116 54.5302L42.6653 55.3838L41.0821 55.8156C40.7441 55.9077 40.4341 55.5976 40.5262 55.2597L40.958 53.6765L41.8116 54.5302Z" fill="#3578FE"/>
<path d="M41.8116 54.5301L42.6653 55.3837L45.5462 54.6368L41.7059 50.7965L40.958 53.6764L41.8116 54.5301Z" fill="#F5F8FF"/>
</svg>
