<svg width="78" height="74" viewBox="0 0 78 74" fill="none" xmlns="http://www.w3.org/2000/svg">
<path opacity="0.05" d="M14.609 62.2701C-8.04547 38.4758 0.657721 18.0415 7.84113 10.7987C21.6076 -1.88381 41.4009 -0.251442 55.3635 3.94787C62.9598 6.23249 70.4248 10.2197 74.3377 17.1199C82.0654 30.7472 75.9394 47.9837 70.2099 55.3784C47.7624 83.7642 23.2173 71.8282 14.609 62.2701Z" fill="#3578FE"/>
<path d="M40.9473 42.7865C45.3258 42.7865 48.8753 39.237 48.8753 34.8586C48.8753 30.4801 45.3258 26.9306 40.9473 26.9306C36.5688 26.9306 33.0194 30.4801 33.0194 34.8586C33.0194 39.237 36.5688 42.7865 40.9473 42.7865Z" fill="#4583FF"/>
<path d="M34.8511 34.983C34.8511 34.9332 34.8511 34.9084 34.8511 34.8586C34.8511 34.1619 34.9755 33.5149 35.1745 32.8929" stroke="#F5F8FF" stroke-width="0.600342" stroke-linecap="round" stroke-linejoin="round"/>
<path d="M36.0454 38.4915C35.6224 37.9192 35.2741 37.2474 35.075 36.5258" stroke="#F5F8FF" stroke-width="0.600342" stroke-linecap="round" stroke-linejoin="round"/>
<path d="M37.2398 39.7108C37.1154 39.6112 36.991 39.5117 36.8666 39.3873" stroke="#F5F8FF" stroke-width="0.600342" stroke-linecap="round" stroke-linejoin="round"/>
<path d="M46.521 37.322C45.8491 38.8149 44.6299 39.9844 43.0872 40.5567" stroke="#F5F8FF" stroke-width="0.600342" stroke-linecap="round" stroke-linejoin="round"/>
<path d="M42.6392 29.0112C44.6796 29.6084 46.2721 31.2258 46.8195 33.291" stroke="#F5F8FF" stroke-width="0.600342" stroke-linecap="round" stroke-linejoin="round"/>
<path opacity="0.6" d="M39.2055 29.0112C39.4792 28.9366 39.7529 28.8619 40.0266 28.837" stroke="#0989FF" stroke-width="0.600342" stroke-linecap="round" stroke-linejoin="round"/>
<path d="M40.7234 38.6905V38.0187C40.3004 38.0187 39.8525 37.9191 39.529 37.745C39.3797 37.6703 39.2802 37.4961 39.3548 37.322C39.4295 37.1229 39.6285 37.0483 39.8027 37.1229C40.1013 37.2722 40.4745 37.3468 40.8727 37.3468C41.5694 37.3468 42.0172 36.9487 42.0172 36.4013C42.0172 35.8788 41.644 35.5553 40.9224 35.2567C39.9271 34.8835 39.3299 34.4356 39.3299 33.5896C39.3299 32.7934 39.9022 32.1713 40.798 32.0469V31.3751C40.798 31.2009 40.9224 31.0765 41.0966 31.0765C41.2708 31.0765 41.3952 31.2009 41.3952 31.3751V32.022C41.7933 32.0469 42.1168 32.1215 42.3656 32.2211C42.5398 32.2957 42.6144 32.4948 42.5398 32.6441C42.4651 32.8182 42.2661 32.9178 42.0919 32.8431C41.8679 32.7436 41.5694 32.669 41.1961 32.669C40.4496 32.669 40.1759 33.1168 40.1759 33.4901C40.1759 33.9877 40.5243 34.2365 41.3703 34.5849C42.3656 34.983 42.8632 35.4807 42.8632 36.3516C42.8632 37.1229 42.3407 37.8196 41.3454 37.9938V38.6905C41.3454 38.8647 41.221 38.9891 41.0468 38.9891C40.8726 38.9891 40.7234 38.8647 40.7234 38.6905Z" fill="#F5F8FF"/>
<path d="M44.1074 49.2156H41.2708C39.952 49.2156 38.882 48.1457 38.882 46.8269C38.882 45.5081 39.952 44.4382 41.2708 44.4382L53.6871 45.1598" fill="#F5F8FF"/>
<path d="M54.6077 50.9814L54.4087 50.9565L54.4584 50.9316L54.3091 46.9504C54.3091 46.7514 54.2096 46.5772 54.0852 46.4528H54.1101H54.0852C53.9608 46.3284 53.7866 46.2537 53.6124 46.2537C53.5627 46.2537 41.3205 45.6316 41.2708 45.6316C40.0764 45.6316 39.0811 46.5025 38.9069 47.672C38.9069 47.6222 38.9069 47.5974 38.882 47.5476V47.4232C38.882 47.4481 38.882 47.7964 38.882 47.7964C38.8572 47.9955 38.8572 48.0204 38.882 48.1697L32.0145 43.9894C30.422 42.9941 28.3817 44.1636 28.3817 46.0049C28.3817 46.0298 28.4065 46.4777 28.4314 46.4777C28.4314 46.5274 28.4563 46.6021 28.4563 46.6021C28.6554 47.2241 28.9291 47.672 29.5262 48.0452C36.8417 53.6687 35.498 52.8476 37.6877 53.594C43.2613 55.4602 41.644 55.4851 47.2674 53.5691L53.1148 51.5785L53.3885 51.479L53.6124 51.4044L54.1101 51.2302L54.5082 51.1058L54.6077 50.9814Z" fill="#F5F8FF"/>
<path d="M44.1074 49.2156H41.2708C39.952 49.2156 38.882 48.1457 38.882 46.8269C38.882 45.5081 39.952 44.4382 41.2708 44.4382L54.1101 45.1846C54.4336 45.2095 54.6824 45.4584 54.6824 45.7818" stroke="#3578FE" stroke-width="0.7" stroke-linecap="round" stroke-linejoin="round"/>
<path d="M46.5459 49.2158H45.8989" stroke="#3578FE" stroke-width="0.600342" stroke-linecap="round" stroke-linejoin="round"/>
<path d="M39.7271 48.6434L39.0802 48.2453L38.9806 48.1707L38.9309 48.1209L38.906 48.096L32.0384 43.9158C30.9187 43.2191 29.4507 43.5674 28.7539 44.6871C28.5051 45.0852 28.4056 45.5082 28.4056 45.9312C28.4056 46.0805 28.4305 46.2547 28.4554 46.404C28.4554 46.4538 28.4802 46.4787 28.4802 46.5284C28.4802 46.5782 28.5051 46.628 28.53 46.6777C28.5798 46.8519 28.6544 47.0261 28.7539 47.1754C28.7788 47.2002 28.7788 47.2251 28.8037 47.25C28.8286 47.2749 28.8535 47.3247 28.8784 47.3495C28.9281 47.3993 28.953 47.4491 29.0028 47.4988C29.0028 47.5237 29.0277 47.5237 29.0525 47.5486C29.0774 47.5735 29.1023 47.6233 29.1521 47.6481C29.1769 47.673 29.2018 47.6979 29.2516 47.7477C29.2765 47.7725 29.3014 47.7974 29.3511 47.8223C29.376 47.8472 29.4258 47.8721 29.4507 47.897C29.5004 47.9218 29.5502 47.9467 29.5751 47.9965L35.6464 52.6744C35.8952 52.8734 36.1938 53.0227 36.5173 53.1223L41.3693 54.7645C42.1158 55.0133 42.9369 55.0133 43.6834 54.7645L53.1885 51.5049L53.6861 51.3307L54.1838 51.1566L54.6814 50.9824" stroke="#3578FE" stroke-width="0.7" stroke-linecap="round" stroke-linejoin="round"/>
<path d="M43.336 27.6676C43.2614 27.6427 43.1867 27.6178 43.0872 27.5929C42.4154 27.3939 41.6689 27.2694 40.9224 27.2694C39.7032 27.2694 38.5586 27.5431 37.5384 28.0657L36.0952 26.7718C36.0455 26.7469 36.0206 26.6971 35.9708 26.6723C35.9211 26.6474 35.8962 26.5976 35.8464 26.5727C35.7966 26.523 35.722 26.4981 35.6722 26.4732C35.4732 26.3488 35.2492 26.2741 35.0004 26.1995C34.876 26.1746 34.7267 26.1497 34.6023 26.1497L32.761 26.0502C32.6117 26.0502 32.4873 26.0751 32.3629 26.1746C32.338 26.1995 32.3131 26.2244 32.2882 26.2244C32.2136 26.299 32.1638 26.3737 32.1389 26.4732L31.492 28.638C31.4422 28.7873 31.4671 28.9614 31.5169 29.0859C31.5418 29.1356 31.5666 29.1854 31.6164 29.2352C31.6662 29.2849 31.7159 29.3347 31.7657 29.3596C31.7906 29.3844 31.8155 29.3844 31.8403 29.4093L31.915 29.4342L32.7112 29.7577L34.6272 30.5539L35.7718 31.0267C35.8713 31.0764 35.9708 31.1262 36.0704 31.176C36.0952 31.2009 36.145 31.2257 36.1699 31.2506C36.1699 31.2506 36.1948 31.2506 36.1948 31.2755C36.2445 31.3004 36.2694 31.3253 36.3192 31.375C36.3441 31.3999 36.3938 31.4248 36.4187 31.4497C36.4436 31.4746 36.4934 31.4995 36.5182 31.5492C36.5431 31.5741 36.5929 31.6239 36.6178 31.6487C36.6426 31.6736 36.6675 31.7234 36.7173 31.7483C36.7422 31.7732 36.7671 31.8229 36.7919 31.8478C36.8168 31.8727 36.8417 31.9225 36.8666 31.9473C36.9164 32.022 36.9661 32.0966 36.991 32.1713C37.0159 32.221 37.0408 32.2459 37.0408 32.2957C37.0657 32.3455 37.0656 32.3703 37.0905 32.4201C37.1154 32.4699 37.1154 32.4947 37.1403 32.5445C37.1652 32.5943 37.1652 32.6192 37.1652 32.6689C37.1652 32.7187 37.1901 32.7436 37.1901 32.7933C37.1901 32.8431 37.2149 32.8929 37.2149 32.9177C37.2398 33.1168 37.2398 33.3407 37.1901 33.5398C37.1901 33.5896 37.1652 33.6642 37.1652 33.714C37.1403 33.7886 37.1154 33.8633 37.1154 33.9379C37.0905 34.0126 37.0657 34.1121 37.0159 34.1868C36.8168 34.6098 36.3938 34.8586 35.9459 34.8586C35.8215 34.8586 35.6971 34.8337 35.5727 34.7839L33.3582 34.0126L31.691 33.4403L26.8887 31.7732C26.1174 31.4995 25.4207 31.0516 24.8733 30.4544L23.3306 28.7375L22.5592 27.8666C22.4348 27.7173 22.3601 27.5431 22.3601 27.3441C22.3601 26.2741 22.4099 22.5667 22.385 20.9493C22.385 20.7005 22.5094 20.4765 22.6836 20.3272C22.7085 20.3024 22.7085 20.3024 22.7334 20.2775C22.7583 20.2526 22.808 20.2277 22.8329 20.2277C22.8578 20.2277 22.8827 20.2028 22.8827 20.2028C22.9076 20.2028 22.9076 20.1779 22.9324 20.1779H22.9573C22.9822 20.1779 22.9822 20.1779 23.0071 20.1779C23.032 20.1779 23.0568 20.1779 23.0568 20.1779C23.0817 20.1779 23.1066 20.1779 23.1315 20.1779H34.5276C35.4732 20.1779 36.3689 20.5512 37.0159 21.223L43.336 27.6676Z" fill="#F5F8FF"/>
<path d="M43.0871 27.5929C42.4153 27.3938 41.6688 27.2694 40.9224 27.2694C39.7031 27.2694 38.5585 27.5431 37.5383 28.0656L36.0952 26.7718C36.0454 26.7469 36.0205 26.6971 35.9708 26.6722C35.921 26.6473 35.8961 26.5976 35.8463 26.5727C35.7966 26.5229 35.7219 26.498 35.6722 26.4732C35.4731 26.3488 35.2492 26.2741 35.0003 26.1995C34.8759 26.1746 34.7266 26.1497 34.6022 26.1497L32.7609 26.0502C32.6116 26.0502 32.4872 26.075 32.3628 26.1746C32.3379 26.1995 32.313 26.2243 32.2882 26.2243C32.2135 26.299 32.1637 26.3736 32.1389 26.4732L31.4919 28.6379C31.4422 28.7872 31.467 28.9614 31.5168 29.0858C31.5417 29.1356 31.5666 29.1853 31.6163 29.2351C31.6661 29.2849 31.7159 29.3346 31.7656 29.3595C31.7905 29.3844 31.8154 29.3844 31.8403 29.4093L31.9149 29.4342L32.7112 29.7576C32.7858 29.8323 32.8604 29.9069 32.96 29.9567L33.0346 29.9816L34.5773 30.6285L36.3191 31.3501C36.344 31.375 36.3938 31.3999 36.4186 31.4248C36.4435 31.4496 36.4933 31.4745 36.5182 31.5243C36.543 31.5492 36.5928 31.5989 36.6177 31.6238C36.6426 31.6487 36.6675 31.6985 36.7172 31.7234C36.7421 31.7482 36.767 31.798 36.7919 31.8229C36.8168 31.8478 36.8416 31.8975 36.8665 31.9224C36.9163 31.9971 36.966 32.0717 36.9909 32.1464C37.0158 32.1961 37.0407 32.221 37.0407 32.2708C37.0656 32.3205 37.0656 32.3454 37.0905 32.3952C37.1153 32.4449 37.1153 32.4698 37.1402 32.5196C37.1651 32.5694 37.1651 32.5942 37.1651 32.644C37.1651 32.6938 37.19 32.7187 37.19 32.7684C37.19 32.8182 37.2149 32.8679 37.2149 32.8928C37.2398 33.0919 37.2398 33.3158 37.19 33.5149C37.19 33.5647 37.1651 33.6393 37.1651 33.6891C37.1402 33.7637 37.1153 33.8384 37.1153 33.913C37.0905 33.9877 37.0656 34.0872 37.0158 34.1618C36.8168 34.5848 36.3938 34.8337 35.9459 34.8337C35.8215 34.8337 35.697 34.8088 35.5726 34.759L33.3581 33.9877L31.691 33.4154L26.8887 31.7482C26.1173 31.4745 25.4206 31.0266 24.8732 30.4295L23.3305 28.7126C23.3056 28.6131 23.2807 28.5384 23.2807 28.4389C23.2807 27.3689 23.3305 23.6614 23.3056 22.0441C23.3056 21.6211 23.654 21.2727 24.077 21.2727H35.4731C36.4186 21.2727 37.3144 21.646 37.9613 22.3178L43.0871 27.5929Z" fill="#F5F8FF"/>
<path d="M22.7084 20.3769C22.8328 20.2774 23.007 20.2028 23.1812 20.2028H24.5497" stroke="#3578FE" stroke-width="0.7" stroke-linecap="round" stroke-linejoin="round"/>
<path d="M22.5841 27.9162L23.3554 28.7871L24.8981 30.504C25.4456 31.1012 26.1423 31.5739 26.9136 31.8228C36.7422 35.2068 30.5465 33.0669 35.5976 34.8087C37.1154 35.3312 37.7624 32.9674 36.8168 31.8477C36.8168 31.7979 36.4934 31.3998 36.0952 31.1758C35.5478 30.8524 31.8901 29.5087 31.6413 29.235C31.492 29.0608 31.4422 28.812 31.5169 28.6378L32.1638 26.4731C32.1887 26.3735 32.2385 26.2989 32.3131 26.2242C32.338 26.1993 32.3629 26.1745 32.3878 26.1745C32.4873 26.0998 32.6366 26.05 32.7859 26.05C34.7267 26.1745 35.0751 26.1247 35.722 26.4731C35.8464 26.4731 37.3394 27.8665 37.4389 27.9411" stroke="#3578FE" stroke-width="0.7" stroke-linecap="round" stroke-linejoin="round"/>
<path d="M27.4113 20.2028H34.5525C35.498 20.2028 36.3938 20.576 37.0408 21.2478L43.2862 27.6177" stroke="#3578FE" stroke-width="0.7" stroke-linecap="round" stroke-linejoin="round"/>
<path d="M26.2169 20.2028H26.2906" stroke="#3578FE" stroke-width="0.7" stroke-linecap="round" stroke-linejoin="round"/>
<path d="M47.0435 30.3548C47.9891 31.6238 48.5365 33.1914 48.5365 34.8834C48.5365 39.0637 45.1276 42.4726 40.9473 42.4726C36.7671 42.4726 33.3582 39.0637 33.3582 34.8834C33.3582 34.6844 33.3582 34.4853 33.3831 34.3111" stroke="#4583FF" stroke-width="0.600342" stroke-linecap="round" stroke-linejoin="round"/>
<path d="M45.4013 28.7126C45.4262 28.7375 45.476 28.7624 45.5008 28.7873" stroke="#4583FF" stroke-width="0.600342" stroke-linecap="round" stroke-linejoin="round"/>
<path d="M35.4731 29.5835C36.8417 28.1404 38.7825 27.2695 40.9473 27.2695C42.1665 27.2695 43.3111 27.5681 44.3313 28.0657" stroke="#4583FF" stroke-width="0.600342" stroke-linecap="round" stroke-linejoin="round"/>
<path opacity="0.6" d="M47.3172 24.0349V22.6166" stroke="#0989FF" stroke-width="0.7" stroke-linecap="round" stroke-linejoin="round"/>
<path opacity="0.6" d="M47.3172 27.3689V26.0501" stroke="#0989FF" stroke-width="0.7" stroke-linecap="round" stroke-linejoin="round"/>
<path opacity="0.6" d="M45.6252 19.7301V19.1827" stroke="#0989FF" stroke-width="0.7" stroke-linecap="round" stroke-linejoin="round"/>
<path opacity="0.6" d="M45.6252 26.324V21.1485" stroke="#0989FF" stroke-width="0.7" stroke-linecap="round" stroke-linejoin="round"/>
</svg>
